<svg width="19" height="15" viewBox="0 0 19 15" fill="none" xmlns="http://www.w3.org/2000/svg">
<path d="M18.2733 5.61218L17.8592 5.17372L16.4058 1.25598C16.1581 0.594232 15.5248 0.15577 14.8184 0.151711H4.43739C3.73098 0.151711 3.09765 0.594232 2.85 1.25598L1.41688 5.125L0.820086 5.67714C0.300427 6.11966 0 6.76923 0 7.45128V13.1594C0.00405983 14.0932 0.763248 14.8483 1.69701 14.8483H2.7688C3.70256 14.8483 4.46175 14.0932 4.46581 13.1594V12.3312H14.5342V13.1594C14.5382 14.0932 15.2974 14.8483 16.2312 14.8483H17.303C18.2368 14.8483 18.9959 14.0932 19 13.1594V7.30107C18.9959 6.66368 18.7361 6.0547 18.2733 5.61218ZM3.61325 1.53205C3.74316 1.18697 4.07201 0.963676 4.43739 0.963676H14.8224C15.1878 0.963676 15.5167 1.19103 15.6466 1.53205L16.9132 4.94231H15.9673C15.744 3.41987 14.3271 2.36838 12.8047 2.59573C11.5908 2.77436 10.6368 3.72842 10.4581 4.94231H2.34658L3.61325 1.53205ZM15.1391 4.94231H11.2782C11.5015 3.87457 12.5489 3.19252 13.6167 3.41581C14.3799 3.57821 14.9767 4.175 15.1391 4.94231ZM3.65385 13.1594C3.64979 13.6466 3.25598 14.0363 2.7688 14.0363H1.69701C1.20983 14.0363 0.816026 13.6466 0.811966 13.1594V12.0957C1.05556 12.2541 1.37628 12.3312 1.69701 12.3312H3.65385V13.1594ZM18.188 13.1594C18.184 13.6466 17.7902 14.0363 17.303 14.0363H16.2312C15.744 14.0363 15.3502 13.6425 15.3462 13.1594V12.3312H17.303C17.6237 12.3312 17.9444 12.2541 18.188 12.0957V13.1594ZM17.303 11.5192H1.69701C1.21389 11.5233 0.816026 11.1376 0.811966 10.6504V7.45128C0.811966 7.0047 1.0109 6.57842 1.35192 6.29017C1.35598 6.28611 1.3641 6.27799 1.36816 6.27393L1.9203 5.75427H17.2949L17.6846 6.17244C17.6887 6.18056 17.7009 6.18462 17.7049 6.19274C18.0094 6.48098 18.184 6.88291 18.184 7.30107V10.6504H18.188C18.184 11.1335 17.7861 11.5233 17.303 11.5192Z" fill="#696969"/>
</svg>
